<?xml version="1.0" encoding="utf-8"?>
<!-- Generator: Adobe Illustrator 27.1.1, SVG Export Plug-In . SVG Version: 6.00 Build 0)  -->
<svg version="1.1" id="Layer_1" xmlns="http://www.w3.org/2000/svg" xmlns:xlink="http://www.w3.org/1999/xlink" x="0px" y="0px"
	 viewBox="0 0 128 128" style="enable-background:new 0 0 128 128;" xml:space="preserve">
<style type="text/css">
	.st0{fill:#009FD6;}
</style>
<path class="st0" d="M2,90.5h4.1V74.2l6.4,14.1c0.8,1.7,1.8,2.3,3.8,2.3s3-0.6,3.8-2.3l6.4-14.1v16.2h4.1V74.3
	c0-1.6-0.6-2.3-1.9-2.7c-3.1-1-5.2-0.1-6.2,2l-6.2,14l-6-14c-0.9-2.1-3-2.9-6.2-2C2.6,71.9,2,72.7,2,74.3L2,90.5L2,90.5z M33.9,77.3
	H38v8.9c0,0.5,0.2,1.6,2.4,1.7c1.1,0,8.9,0,8.9,0V77.2h4.1c0,0,0,14.5,0,14.6c0,3.6-4.4,4.4-6.5,4.4H34v-2.8c0,0,13,0,13,0
	c2.6-0.3,2.3-1.6,2.3-2v-1.1h-8.7c-4.1,0-6.7-1.8-6.7-3.8C33.9,86.3,34,77.3,33.9,77.3z M56.6,90.5h11.8c1.4,0,2.7-0.3,3.8-0.8
	c1.8-0.8,2.6-1.9,2.6-3.4v-3c0-1.2-1-2.3-2.9-3c-1-0.4-2.3-0.6-3.5-0.6h-5c-1.7,0-2.4-0.5-2.6-1.6c0-0.1,0-0.2,0-0.4v-1.9
	c0-0.1,0-0.2,0-0.3c0.2-0.8,0.6-1.1,2.1-1.2l0.4,0H75v-2.7H63.5c-1.7,0-2.5,0.1-3.3,0.3c-2.4,0.8-3.5,2-3.5,4.1v2.4
	c0,1.8,2.1,3.4,5.6,3.8c0.4,0,0.8,0.1,1.2,0.1h4.3c0.2,0,0.3,0,0.4,0c1.3,0.1,1.9,0.3,2.3,0.8c0.2,0.2,0.3,0.5,0.3,0.7v2.4
	c0,0.3-0.2,0.7-0.6,1c-0.4,0.3-0.9,0.5-1.7,0.6l-0.4,0H56.6C56.6,87.7,56.6,90.5,56.6,90.5z M100.5,85.7c0,2.8,2.1,4.4,6.3,4.7
	c0.4,0,0.8,0.1,1.2,0.1h10.7v-2.7h-10.8c-2.4,0-3.3-0.6-3.3-2.1V71.5h-4.1L100.5,85.7L100.5,85.7z M77.5,85.8v-9.8
	c0-2.5,1.7-4,5.2-4.5c0.4-0.1,0.8-0.1,1.1-0.1h7.8c0.4,0,0.8,0,1.1,0.1c3.4,0.5,5.2,2,5.2,4.5v9.8c0,2-0.7,3.1-2.4,3.8l4,3.7h-4.8
	l-3.3-3l-3.3,0.2h-4.4c-0.8,0-1.5-0.1-2.4-0.3C78.8,89.5,77.5,88.1,77.5,85.8z M81.9,85.6c0,0.1,0,0.3,0.1,0.4
	c0.2,1.1,1.3,1.8,2.9,1.8h3.7l-3.4-3.1H90l3,2.7c0.6-0.3,0.9-0.7,1-1.3c0-0.1,0-0.3,0-0.4v-9.4c0-0.1,0-0.2,0-0.4
	c-0.2-1.1-1.3-1.7-2.9-1.7h-6.2c-1.8,0-3,0.8-3,2L81.9,85.6L81.9,85.6z M122.3,67c-2.5-0.1-4.5,0.2-6.1,0.9
	c-0.5,0.2-1.2,0.2-1.3,0.8c0.3,0.3,0.3,0.7,0.5,1c0.4,0.6,1.1,1.5,1.7,1.9c0.6,0.5,1.3,1,2,1.4c1.2,0.8,2.6,1.2,3.8,1.9
	c0.7,0.4,1.4,1,2.1,1.5c0.3,0.2,0.6,0.6,1,0.8v-0.1c-0.2-0.3-0.3-0.7-0.5-1l-0.9-0.9c-0.9-1.2-2.1-2.3-3.3-3.2
	c-1-0.7-3.2-1.7-3.6-2.8l-0.1-0.1c0.7-0.1,1.5-0.3,2.2-0.5c1.1-0.3,2-0.2,3.2-0.5l1.5-0.4v-0.3c-0.6-0.6-1-1.3-1.6-1.9
	c-1.6-1.4-3.4-2.7-5.2-3.9c-1-0.6-2.2-1-3.3-1.6c-0.4-0.2-1-0.3-1.2-0.6c-0.6-0.7-0.9-1.6-1.3-2.4c-0.9-1.7-1.8-3.6-2.6-5.5
	c-0.5-1.2-0.9-2.5-1.6-3.6c-3.3-5.4-6.8-8.6-12.2-11.8c-1.2-0.7-2.6-0.9-4-1.3l-2.4-0.1c-0.5-0.2-1-0.8-1.4-1.1
	c-1.8-1.1-6.4-3.6-7.8-0.4c-0.8,2.1,1.3,4.1,2,5.1c0.5,0.7,1.2,1.5,1.6,2.4c0.2,0.5,0.3,1.1,0.5,1.7c0.5,1.4,1,2.9,1.7,4.2
	c0.3,0.7,0.7,1.4,1.1,1.9c0.3,0.4,0.7,0.5,0.8,1.1c-0.4,0.6-0.5,1.6-0.7,2.4c-1.1,3.5-0.7,7.9,0.9,10.6c0.5,0.8,1.7,2.5,3.3,1.9
	c1.4-0.6,1.1-2.4,1.5-4c0.1-0.4,0-0.6,0.2-0.9v0.1l1.3,2.6c1,1.5,2.7,3.1,4.1,4.2c0.7,0.6,1.3,1.5,2.3,1.9v-0.1h-0.1
	c-0.2-0.3-0.5-0.4-0.7-0.6c-0.6-0.6-1.2-1.2-1.7-1.9c-1.3-1.8-2.5-3.7-3.5-5.7c-0.5-1-0.9-2-1.4-3c-0.2-0.4-0.2-1-0.5-1.1
	c-0.5,0.7-1.1,1.3-1.5,2.2c-0.6,1.4-0.6,3-0.9,4.7L90.2,63c-1-0.2-1.4-1.3-1.7-2.2c-0.9-2.2-1.1-5.8-0.3-8.4
	c0.2-0.7,1.2-2.8,0.8-3.4c-0.2-0.6-0.8-1-1.1-1.4c-0.4-0.6-0.9-1.3-1.1-2c-0.8-1.7-1.1-3.7-1.9-5.5c-0.4-0.8-1-1.7-1.6-2.4
	c-0.6-0.8-1.3-1.4-1.7-2.4c-0.2-0.4-0.4-0.9-0.1-1.3c0.1-0.2,0.2-0.3,0.4-0.4c0.4-0.3,1.6,0.1,2,0.3c1.2,0.5,2.1,0.9,3.1,1.6
	c0.5,0.3,0.9,0.9,1.5,1.1h0.6c1,0.2,2.1,0.1,3.1,0.4c1.7,0.5,3.2,1.3,4.5,2.2c4.1,2.6,7.5,6.3,9.8,10.8c0.4,0.7,0.5,1.4,0.9,2.2
	c0.7,1.5,1.5,3.1,2.2,4.6c0.7,1.5,1.3,3,2.2,4.2c0.5,0.7,2.4,1,3.2,1.4c0.6,0.3,1.6,0.5,2.2,0.9c1.1,0.7,2.1,1.4,3.2,2.2
	C120.7,65.5,122.3,66.3,122.3,67z M90.2,39.6c-0.5,0-0.9,0.1-1.3,0.1v0.1H89c0.3,0.5,0.7,0.8,1,1.3l0.7,1.5l0.1-0.1
	c0.4-0.3,0.6-0.8,0.6-1.6c-0.2-0.2-0.2-0.4-0.4-0.6C90.9,40,90.5,39.8,90.2,39.6z"/>
</svg>
